<svg width="7" height="12" viewBox="0 0 7 12" fill="none" xmlns="http://www.w3.org/2000/svg">
<path d="M6.54348 7.16481L2.58696 11.4913C2.10507 12.0182 1.5537 12.1358 0.932826 11.844C0.310942 11.5534 -4.224e-08 11.0337 -7.49715e-08 10.2849L-4.49565e-07 1.71515C-4.82297e-07 0.966338 0.310941 0.446609 0.932825 0.155959C1.5537 -0.135799 2.10507 -0.0182086 2.58696 0.508732L6.54348 4.83519C6.69565 5.00159 6.80978 5.18186 6.88587 5.37599C6.96196 5.57013 7 5.77813 7 6C7 6.22187 6.96196 6.42987 6.88587 6.62401C6.80978 6.81814 6.69565 6.99841 6.54348 7.16481Z" fill="#1C1B1F"/>
</svg>
