<svg width="22" height="22" viewBox="0 0 22 22" fill="none" xmlns="http://www.w3.org/2000/svg">
<g clip-path="url(#clip0_400_4389)">
<path d="M3.16016 11.0896C3.16016 12.1155 3.36223 13.1314 3.75483 14.0792C4.14743 15.0271 4.72288 15.8883 5.44832 16.6137C6.17375 17.3392 7.03497 17.9146 7.9828 18.3072C8.93063 18.6998 9.9465 18.9019 10.9724 18.9019C11.9983 18.9019 13.0142 18.6998 13.962 18.3072C14.9099 17.9146 15.7711 17.3392 16.4965 16.6137C17.222 15.8883 17.7974 15.0271 18.19 14.0792C18.5826 13.1314 18.7847 12.1155 18.7847 11.0896C18.7847 10.0637 18.5826 9.04781 18.19 8.09999C17.7974 7.15216 17.222 6.29094 16.4965 5.5655C15.7711 4.84007 14.9099 4.26462 13.962 3.87202C13.0142 3.47941 11.9983 3.27734 10.9724 3.27734C9.9465 3.27734 8.93063 3.47941 7.9828 3.87202C7.03497 4.26462 6.17375 4.84007 5.44832 5.5655C4.72288 6.29094 4.14743 7.15216 3.75483 8.09999C3.36223 9.04781 3.16016 10.0637 3.16016 11.0896ZM8.36833 11.0896L10.1044 12.8257L13.5765 9.35355" fill="#3DB54A"/>
<path d="M8.36833 11.0896L10.1044 12.8257L13.5765 9.35355M3.16016 11.0896C3.16016 12.1155 3.36223 13.1314 3.75483 14.0792C4.14743 15.0271 4.72288 15.8883 5.44832 16.6137C6.17375 17.3392 7.03497 17.9146 7.9828 18.3072C8.93063 18.6998 9.9465 18.9019 10.9724 18.9019C11.9983 18.9019 13.0142 18.6998 13.962 18.3072C14.9099 17.9146 15.7711 17.3392 16.4965 16.6137C17.222 15.8883 17.7974 15.0271 18.19 14.0792C18.5826 13.1314 18.7847 12.1155 18.7847 11.0896C18.7847 10.0637 18.5826 9.04781 18.19 8.09999C17.7974 7.15216 17.222 6.29094 16.4965 5.5655C15.7711 4.84007 14.9099 4.26462 13.962 3.87202C13.0142 3.47941 11.9983 3.27734 10.9724 3.27734C9.9465 3.27734 8.93063 3.47941 7.9828 3.87202C7.03497 4.26462 6.17375 4.84007 5.44832 5.5655C4.72288 6.29094 4.14743 7.15216 3.75483 8.09999C3.36223 9.04781 3.16016 10.0637 3.16016 11.0896Z" stroke="#D7F9CF" stroke-width="1.73606" stroke-linecap="round" stroke-linejoin="round"/>
</g>
<defs>
<clipPath id="clip0_400_4389">
<rect width="20.8327" height="20.8327" fill="white" transform="translate(0.554688 0.673828)"/>
</clipPath>
</defs>
</svg>
