<svg width="342" height="116" viewBox="0 0 342 116" fill="none" xmlns="http://www.w3.org/2000/svg">
<path d="M75.8532 43.7759V48.0063C75.8532 54.7914 74.9356 60.8816 73.1005 66.277C71.2653 71.6723 68.6757 76.2706 65.3316 80.0719C61.9876 83.8323 57.991 86.7139 53.3419 88.7167C48.7336 90.7195 43.6156 91.7209 37.9878 91.7209C32.4007 91.7209 27.2827 90.7195 22.6336 88.7167C18.0253 86.7139 14.0288 83.8323 10.6439 80.0719C7.25907 76.2706 4.62868 71.6723 2.75274 66.277C0.917579 60.8816 0 54.7914 0 48.0063V43.7759C0 36.95 0.917579 30.8598 2.75274 25.5053C4.58789 20.1099 7.17751 15.5116 10.5216 11.7104C13.9064 7.90909 17.903 5.00705 22.5113 3.00423C27.1603 1.00141 32.2784 0 37.8654 0C43.4932 0 48.6113 1.00141 53.2196 3.00423C57.8686 5.00705 61.8652 7.90909 65.2093 11.7104C68.5941 15.5116 71.2041 20.1099 73.0393 25.5053C74.9152 30.8598 75.8532 36.95 75.8532 43.7759ZM57.3181 48.0063V43.6533C57.3181 38.9119 56.8899 34.7428 56.0335 31.1459C55.1771 27.549 53.9129 24.5243 52.2408 22.0719C50.5688 19.6194 48.5297 17.7801 46.1236 16.5539C43.7175 15.2868 40.9648 14.6533 37.8654 14.6533C34.766 14.6533 32.0133 15.2868 29.6072 16.5539C27.2419 17.7801 25.2232 19.6194 23.5512 22.0719C21.9199 24.5243 20.6761 27.549 19.8197 31.1459C18.9633 34.7428 18.5351 38.9119 18.5351 43.6533V48.0063C18.5351 52.7068 18.9633 56.876 19.8197 60.5137C20.6761 64.1106 21.9403 67.1557 23.6124 69.649C25.2844 72.1015 27.3235 73.9612 29.7296 75.2283C32.1357 76.4954 34.8884 77.129 37.9878 77.129C41.0871 77.129 43.8399 76.4954 46.246 75.2283C48.6521 73.9612 50.6707 72.1015 52.302 69.649C53.9332 67.1557 55.1771 64.1106 56.0335 60.5137C56.8899 56.876 57.3181 52.7068 57.3181 48.0063Z" fill="#020B01"/>
<path d="M84.5249 58V56.7125C84.5249 51.8485 85.2182 47.3728 86.6048 43.2854C87.9913 39.1572 90.01 35.5807 92.6608 32.556C95.3116 29.5314 98.5741 27.1811 102.448 25.5053C106.323 23.7886 110.768 22.9302 115.784 22.9302C120.8 22.9302 125.265 23.7886 129.18 25.5053C133.095 27.1811 136.378 29.5314 139.029 32.556C141.721 35.5807 143.76 39.1572 145.146 43.2854C146.533 47.3728 147.226 51.8485 147.226 56.7125V58C147.226 62.8231 146.533 67.2988 145.146 71.4271C143.76 75.5144 141.721 79.0909 139.029 82.1564C136.378 85.1811 133.116 87.5314 129.242 89.2072C125.367 90.883 120.922 91.7209 115.906 91.7209C110.89 91.7209 106.424 90.883 102.509 89.2072C98.6352 87.5314 95.3524 85.1811 92.6608 82.1564C90.01 79.0909 87.9913 75.5144 86.6048 71.4271C85.2182 67.2988 84.5249 62.8231 84.5249 58ZM102.142 56.7125V58C102.142 60.7794 102.387 63.3749 102.876 65.7865C103.366 68.198 104.141 70.3235 105.201 72.1628C106.302 73.9612 107.729 75.3714 109.483 76.3932C111.237 77.4151 113.378 77.926 115.906 77.926C118.353 77.926 120.453 77.4151 122.207 76.3932C123.96 75.3714 125.367 73.9612 126.428 72.1628C127.488 70.3235 128.263 68.198 128.752 65.7865C129.282 63.3749 129.547 60.7794 129.547 58V56.7125C129.547 54.0148 129.282 51.4806 128.752 49.1099C128.263 46.6984 127.468 44.5729 126.367 42.7336C125.306 40.8534 123.899 39.382 122.146 38.3192C120.392 37.2565 118.271 36.7252 115.784 36.7252C113.296 36.7252 111.175 37.2565 109.422 38.3192C107.709 39.382 106.302 40.8534 105.201 42.7336C104.141 44.5729 103.366 46.6984 102.876 49.1099C102.387 51.4806 102.142 54.0148 102.142 56.7125Z" fill="#020B01"/>
<path d="M175.045 36.9091V116H157.427V24.1564H173.76L175.045 36.9091ZM216.947 56.5899V57.8774C216.947 62.7005 216.377 67.1762 215.235 71.3044C214.134 75.4327 212.502 79.0296 210.341 82.0951C208.179 85.1198 205.488 87.4905 202.266 89.2072C199.085 90.883 195.415 91.7209 191.255 91.7209C187.218 91.7209 183.711 90.9035 180.734 89.2685C177.757 87.6335 175.249 85.3446 173.21 82.4017C171.211 79.4179 169.6 75.9641 168.377 72.0402C167.154 68.1163 166.216 63.9063 165.563 59.4101V56.0381C166.216 51.2149 167.154 46.8006 168.377 42.7949C169.6 38.7484 171.211 35.2537 173.21 32.3108C175.249 29.327 177.736 27.0176 180.673 25.3827C183.65 23.7477 187.136 22.9302 191.133 22.9302C195.333 22.9302 199.024 23.7273 202.205 25.3214C205.427 26.9154 208.118 29.2044 210.28 32.1882C212.482 35.172 214.134 38.728 215.235 42.8562C216.377 46.9845 216.947 51.5624 216.947 56.5899ZM199.269 57.8774V56.5899C199.269 53.7696 199.024 51.1741 198.535 48.8034C198.086 46.3918 197.352 44.2868 196.333 42.4884C195.354 40.6899 194.049 39.3002 192.418 38.3192C190.827 37.2974 188.89 36.7865 186.606 36.7865C184.2 36.7865 182.141 37.1748 180.428 37.9514C178.756 38.728 177.39 39.852 176.329 41.3235C175.269 42.7949 174.474 44.5525 173.944 46.5962C173.413 48.6399 173.087 50.9493 172.965 53.5243V62.0465C173.169 65.0712 173.74 67.7893 174.678 70.2008C175.616 72.5715 177.063 74.4517 179.021 75.8414C180.978 77.2311 183.548 77.926 186.729 77.926C189.053 77.926 191.011 77.4151 192.601 76.3932C194.192 75.3305 195.476 73.8795 196.455 72.0402C197.474 70.2008 198.188 68.0754 198.596 65.6638C199.044 63.2523 199.269 60.6568 199.269 57.8774Z" fill="#020B01"/>
<path d="M263.056 72.1628C263.056 70.8957 262.689 69.7512 261.955 68.7294C261.221 67.7075 259.855 66.7674 257.857 65.9091C255.899 65.0099 253.065 64.1924 249.354 63.4567C246.01 62.7209 242.89 61.8013 239.995 60.6977C237.14 59.5532 234.652 58.1839 232.532 56.5899C230.452 54.9958 228.821 53.1156 227.638 50.9493C226.455 48.7421 225.864 46.2283 225.864 43.408C225.864 40.6286 226.455 38.0127 227.638 35.5603C228.861 33.1078 230.595 30.9415 232.837 29.0613C235.121 27.1402 237.894 25.6483 241.157 24.5856C244.46 23.482 248.171 22.9302 252.29 22.9302C258.04 22.9302 262.975 23.8499 267.094 25.6892C271.253 27.5285 274.434 30.0627 276.637 33.2918C278.88 36.4799 280.001 40.1177 280.001 44.2051H262.384C262.384 42.4884 262.016 40.9556 261.282 39.6068C260.589 38.2171 259.488 37.1339 257.979 36.3573C256.511 35.5398 254.594 35.1311 252.229 35.1311C250.271 35.1311 248.579 35.4785 247.152 36.1734C245.724 36.8273 244.623 37.7266 243.848 38.871C243.114 39.9746 242.747 41.2008 242.747 42.5497C242.747 43.5715 242.951 44.4912 243.359 45.3087C243.808 46.0853 244.521 46.8006 245.5 47.4545C246.479 48.1085 247.743 48.7216 249.293 49.2939C250.883 49.8252 252.841 50.3157 255.165 50.7653C259.937 51.7463 264.198 53.0338 267.95 54.6279C271.702 56.1811 274.679 58.3066 276.881 61.0042C279.083 63.661 280.185 67.1557 280.185 71.4884C280.185 74.4313 279.532 77.129 278.227 79.5814C276.922 82.0338 275.046 84.1797 272.599 86.019C270.152 87.8175 267.216 89.2276 263.79 90.2495C260.406 91.2304 256.593 91.7209 252.351 91.7209C246.193 91.7209 240.973 90.6173 236.691 88.4101C232.45 86.203 229.228 83.4031 227.026 80.0106C224.865 76.5772 223.784 73.062 223.784 69.4651H240.484C240.566 71.8767 241.177 73.8182 242.319 75.2896C243.502 76.7611 244.99 77.8238 246.785 78.4778C248.62 79.1318 250.598 79.4588 252.718 79.4588C255.002 79.4588 256.898 79.1522 258.407 78.5391C259.916 77.8851 261.058 77.0268 261.833 75.9641C262.649 74.8605 263.056 73.5934 263.056 72.1628Z" fill="#020B01"/>
<path d="M341.449 1.22622L339.431 63.2114H324.75L322.67 1.22622H341.449ZM322.18 82.4017C322.18 79.7858 323.077 77.6194 324.872 75.9027C326.707 74.1452 329.113 73.2664 332.09 73.2664C335.108 73.2664 337.514 74.1452 339.308 75.9027C341.103 77.6194 342 79.7858 342 82.4017C342 84.9359 341.103 87.0817 339.308 88.8393C337.514 90.5969 335.108 91.4757 332.09 91.4757C329.113 91.4757 326.707 90.5969 324.872 88.8393C323.077 87.0817 322.18 84.9359 322.18 82.4017Z" fill="#020B01"/>
</svg>
