<svg width="24" height="24" viewBox="0 0 24 24" fill="none" xmlns="http://www.w3.org/2000/svg">
<mask id="mask0_27_46351" style="mask-type:alpha" maskUnits="userSpaceOnUse" x="0" y="0" width="24" height="24">
<rect width="24" height="24" fill="#D9D9D9"/>
</mask>
<g mask="url(#mask0_27_46351)">
<path d="M10.8352 15.5435L6.50873 11.587C5.98179 11.1051 5.8642 10.5537 6.15596 9.93283C6.44661 9.31094 6.96634 9 7.71515 9H16.2849C17.0337 9 17.5534 9.31094 17.844 9.93283C18.1358 10.5537 18.0182 11.1051 17.4913 11.587L13.1648 15.5435C12.9984 15.6957 12.8181 15.8098 12.624 15.8859C12.4299 15.962 12.2219 16 12 16C11.7781 16 11.5701 15.962 11.376 15.8859C11.1819 15.8098 11.0016 15.6957 10.8352 15.5435Z" fill="#7E7E7E"/>
</g>
</svg>
