<svg width="18" height="17" viewBox="0 0 18 17" fill="none" xmlns="http://www.w3.org/2000/svg">
<path d="M5.84885 13.8242L8.99885 11.9242L12.1488 13.8492L11.3238 10.2492L14.0989 7.84922L10.4488 7.52422L8.99885 4.12422L7.54885 7.49922L3.89885 7.82422L6.67385 10.2492L5.84885 13.8242ZM8.99885 14.2742L4.84885 16.7742C4.66552 16.8909 4.47385 16.9409 4.27385 16.9242C4.07385 16.9076 3.89885 16.8409 3.74885 16.7242C3.59885 16.6076 3.48218 16.4619 3.39885 16.2872C3.31552 16.1119 3.29885 15.9159 3.34885 15.6992L4.44885 10.9742L0.77385 7.79922C0.607183 7.64922 0.503183 7.47822 0.46185 7.28622C0.41985 7.09489 0.432183 6.90755 0.49885 6.72422C0.565516 6.54089 0.665516 6.39089 0.79885 6.27422C0.932183 6.15755 1.11552 6.08255 1.34885 6.04922L6.19885 5.62422L8.07385 1.17422C8.15718 0.974219 8.28652 0.824219 8.46185 0.724219C8.63652 0.624219 8.81552 0.574219 8.99885 0.574219C9.18218 0.574219 9.36152 0.624219 9.53685 0.724219C9.71152 0.824219 9.84052 0.974219 9.92385 1.17422L11.7989 5.62422L16.6488 6.04922C16.8822 6.08255 17.0655 6.15755 17.1989 6.27422C17.3322 6.39089 17.4322 6.54089 17.4988 6.72422C17.5655 6.90755 17.5782 7.09489 17.5368 7.28622C17.4949 7.47822 17.3905 7.64922 17.2239 7.79922L13.5488 10.9742L14.6488 15.6992C14.6988 15.9159 14.6822 16.1119 14.5989 16.2872C14.5155 16.4619 14.3988 16.6076 14.2488 16.7242C14.0989 16.8409 13.9239 16.9076 13.7239 16.9242C13.5239 16.9409 13.3322 16.8909 13.1488 16.7742L8.99885 14.2742Z" fill="#FACC0A"/>
</svg>
