<svg width="211" height="211" viewBox="0 0 211 211" fill="none" xmlns="http://www.w3.org/2000/svg">
<path d="M91.7054 16.4564C98.8995 7.87409 112.1 7.8741 119.295 16.4564L125.59 23.9665C129.725 28.8997 136.18 31.2491 142.519 30.1281L152.169 28.4216C163.196 26.4715 173.309 34.9569 173.303 46.1556L173.299 55.9553C173.295 62.3924 176.73 68.3413 182.306 71.5571L190.795 76.4527C200.497 82.0472 202.789 95.0476 195.586 103.623L189.283 111.127C185.143 116.056 183.95 122.821 186.155 128.868L189.511 138.075C193.347 148.597 186.746 160.029 175.717 161.968L166.065 163.665C159.725 164.78 154.463 169.195 152.264 175.245L148.917 184.456C145.092 194.981 132.688 199.496 122.992 193.892L114.508 188.988C108.935 185.766 102.065 185.766 96.4922 188.988L88.0079 193.892C78.3124 199.496 65.9076 194.981 62.0826 184.456L58.7355 175.245C56.5369 169.195 51.2748 164.78 44.9348 163.665L35.2832 161.968C24.2537 160.029 17.6533 148.597 21.4887 138.075L24.8449 128.868C27.0496 122.82 25.8568 116.056 21.7166 111.127L15.4137 103.623C8.21109 95.0476 10.5034 82.0472 20.2045 76.4527L28.6937 71.5571C34.2701 68.3413 37.7047 62.3924 37.7015 55.9552L37.6966 46.1556C37.691 34.9569 47.8035 26.4715 58.8311 28.4216L68.481 30.1281C74.8199 31.2491 81.2748 28.8997 85.4101 23.9665L91.7054 16.4564Z" fill="#3DB54A"/>
<mask id="mask0_1_22609" style="mask-type:alpha" maskUnits="userSpaceOnUse" x="58" y="58" width="95" height="95">
<rect x="58.084" y="58.084" width="94.8315" height="94.8315" fill="#D9D9D9"/>
</mask>
<g mask="url(#mask0_1_22609)">
<path d="M95.8199 128.812C95.1613 128.812 94.5186 128.696 93.8916 128.464C93.2673 128.235 92.6918 127.857 92.1649 127.33L75.1743 110.34C74.1865 109.352 73.7097 108.117 73.7439 106.633C73.7755 105.153 74.2852 103.919 75.2731 102.931C76.2609 101.943 77.4963 101.449 78.9794 101.449C80.4598 101.449 81.6939 101.943 82.6818 102.931L95.8199 116.069L128.319 83.5696C129.307 82.5818 130.543 82.0708 132.026 82.0365C133.506 82.0049 134.74 82.516 135.728 83.5696C136.716 84.5575 137.21 85.8087 137.21 87.3234C137.21 88.8381 136.716 90.0893 135.728 91.0771L99.4748 127.33C98.948 127.857 98.3724 128.235 97.7481 128.464C97.1212 128.696 96.4784 128.812 95.8199 128.812Z" fill="white"/>
</g>
</svg>
